<?xml version="1.0" encoding="UTF-8" standalone="no"?><!DOCTYPE svg PUBLIC "-//W3C//DTD SVG 1.1//EN" "http://www.w3.org/Graphics/SVG/1.1/DTD/svg11.dtd"><svg width="100%" height="100%" viewBox="0 0 25 89" version="1.1" xmlns="http://www.w3.org/2000/svg" xmlns:xlink="http://www.w3.org/1999/xlink" xml:space="preserve" xmlns:serif="http://www.serif.com/" style="fill-rule:evenodd;clip-rule:evenodd;stroke-linejoin:round;stroke-miterlimit:1.41421;"><path d="M0,78.442c0,5.756 5.106,10.558 10.246,10.558l1.949,0c5.141,0 10.447,-4.802 10.447,-10.558l0,-49.302c0,-5.755 -4.007,-10.557 -9.148,-10.557l-1.949,0c-5.14,0 -9.148,4.802 -9.148,10.558l0,31.846l1.949,0l0,-31.846c0,-4.862 3.284,-8.608 7.199,-8.608l1.949,0c3.915,0 7.2,3.746 7.2,8.608l0,49.301c0,4.862 -4.584,8.608 -8.499,8.608l-1.949,0c-3.915,0 -8.297,-3.746 -8.297,-8.608l0.072,-66.049c0,-5.861 4.19,-10.456 9.297,-10.456l2.456,0c5.108,0 9.291,4.595 9.291,10.456l0,48.918l1.935,0l0,-48.918c0,-6.796 -4.963,-12.393 -11.226,-12.393l-2.456,0c-6.263,0 -11.232,5.597 -11.232,12.393l-0.086,66.049l0,0Z" style="fill-rule:nonzero;"/></svg>